
=== 2026-04-23T10:27:18.470Z node gen-criaprof.js porteiro ===

[criaprof:porteiro] 50 imagens em /home/nmaldaner/projetos/timesmkt3/prj/inema/videos/criaprof/porteiro_2026-04-23/imgs

── 1/50 ── cena01-ini.png
[inemaimg] model=flux2-klein quality=fast ratio=1:1 (512x512) steps=4
[inemaimg] prompt: Cozy 1980s Brazilian home with a family apartment lobby with a doorman greeting residents, warm afternoon light spilling...
[inemaimg] ✅ saved: /home/nmaldaner/projetos/timesmkt3/prj/inema/videos/criaprof/porteiro_2026-04-23/imgs/cena01-ini.png  (server=2.13s wall=2.2s vram=32.3GB)
── 2/50 ── cena01-fim.png
[inemaimg] model=flux2-klein quality=fast ratio=1:1 (512x512) steps=4
[inemaimg] prompt: Brazilian man with warm medium skin, short neat dark hair often with silver, alert attentive eyes, calm vigilant concier...
[inemaimg] ✅ saved: /home/nmaldaner/projetos/timesmkt3/prj/inema/videos/criaprof/porteiro_2026-04-23/imgs/cena01-fim.png  (server=2.12s wall=2.2s vram=32.3GB)
── 3/50 ── cena02-ini.png
[inemaimg] model=flux2-klein quality=fast ratio=1:1 (512x512) steps=4
[inemaimg] prompt: 1980s brazilian bedroom with a toy walkie-talkie and a paper list of names sitting on a bedspread, old wooden toy shelf ...
[inemaimg] ✅ saved: /home/nmaldaner/projetos/timesmkt3/prj/inema/videos/criaprof/porteiro_2026-04-23/imgs/cena02-ini.png  (server=2.13s wall=2.2s vram=32.3GB)
── 4/50 ── cena02-fim.png
[inemaimg] model=flux2-klein quality=fast ratio=1:1 (512x512) steps=4
[inemaimg] prompt: Brazilian man with warm medium skin, short neat dark hair often with silver, alert attentive eyes, calm vigilant concier...
[inemaimg] ✅ saved: /home/nmaldaner/projetos/timesmkt3/prj/inema/videos/criaprof/porteiro_2026-04-23/imgs/cena02-fim.png  (server=2.13s wall=2.2s vram=32.3GB)
── 5/50 ── cena03-ini.png
[inemaimg] model=flux2-klein quality=fast ratio=1:1 (512x512) steps=4
[inemaimg] prompt: 1980s brazilian public school classroom with wooden desks, chalkboard with a chalkboard with building security rules, su...
[inemaimg] ✅ saved: /home/nmaldaner/projetos/timesmkt3/prj/inema/videos/criaprof/porteiro_2026-04-23/imgs/cena03-ini.png  (server=2.13s wall=2.2s vram=32.3GB)
── 6/50 ── cena03-fim.png
[inemaimg] model=flux2-klein quality=fast ratio=1:1 (512x512) steps=4
[inemaimg] prompt: Brazilian man with warm medium skin, short neat dark hair often with silver, alert attentive eyes, calm vigilant concier...
[inemaimg] ✅ saved: /home/nmaldaner/projetos/timesmkt3/prj/inema/videos/criaprof/porteiro_2026-04-23/imgs/cena03-fim.png  (server=2.13s wall=2.2s vram=32.3GB)
── 7/50 ── cena04-ini.png
[inemaimg] model=flux2-klein quality=fast ratio=1:1 (512x512) steps=4
[inemaimg] prompt: Warm family living room 1980s with a an old brazilian building-code manual on a crochet tablecloth, old TV tube in backg...
[inemaimg] ✅ saved: /home/nmaldaner/projetos/timesmkt3/prj/inema/videos/criaprof/porteiro_2026-04-23/imgs/cena04-ini.png  (server=2.12s wall=2.2s vram=32.3GB)
── 8/50 ── cena04-fim.png
[inemaimg] model=flux2-klein quality=fast ratio=1:1 (512x512) steps=4
[inemaimg] prompt: Brazilian man with warm medium skin, short neat dark hair often with silver, alert attentive eyes, calm vigilant concier...
[inemaimg] ✅ saved: /home/nmaldaner/projetos/timesmkt3/prj/inema/videos/criaprof/porteiro_2026-04-23/imgs/cena04-fim.png  (server=2.13s wall=2.2s vram=32.3GB)
── 9/50 ── cena05-ini.png
[inemaimg] model=flux2-klein quality=fast ratio=1:1 (512x512) steps=4
[inemaimg] prompt: Early 1990s brazilian home scene with an elderly neighbor locked out of her apartment, muted afternoon light, familiar h...
[inemaimg] ✅ saved: /home/nmaldaner/projetos/timesmkt3/prj/inema/videos/criaprof/porteiro_2026-04-23/imgs/cena05-ini.png  (server=2.12s wall=2.2s vram=32.3GB)
── 10/50 ── cena05-fim.png
[inemaimg] model=flux2-klein quality=fast ratio=1:1 (512x512) steps=4
[inemaimg] prompt: Brazilian man with warm medium skin, short neat dark hair often with silver, alert attentive eyes, calm vigilant concier...
[inemaimg] ✅ saved: /home/nmaldaner/projetos/timesmkt3/prj/inema/videos/criaprof/porteiro_2026-04-23/imgs/cena05-fim.png  (server=2.13s wall=2.2s vram=32.3GB)
── 11/50 ── cena06-ini.png
[inemaimg] model=flux2-klein quality=fast ratio=1:1 (512x512) steps=4
[inemaimg] prompt: 1990s brazilian classroom with a building safety procedures poster on the wall, a notebook open on a wooden desk, aftern...
[inemaimg] ✅ saved: /home/nmaldaner/projetos/timesmkt3/prj/inema/videos/criaprof/porteiro_2026-04-23/imgs/cena06-ini.png  (server=2.12s wall=2.2s vram=32.3GB)
── 12/50 ── cena06-fim.png
[inemaimg] model=flux2-klein quality=fast ratio=1:1 (512x512) steps=4
[inemaimg] prompt: Brazilian man with warm medium skin, short neat dark hair often with silver, alert attentive eyes, calm vigilant concier...
[inemaimg] ✅ saved: /home/nmaldaner/projetos/timesmkt3/prj/inema/videos/criaprof/porteiro_2026-04-23/imgs/cena06-fim.png  (server=2.12s wall=2.2s vram=32.3GB)
── 13/50 ── cena07-ini.png
[inemaimg] model=flux2-klein quality=fast ratio=1:1 (512x512) steps=4
[inemaimg] prompt: Late 1990s brazilian teen bedroom with uniform, keys, radio, sign-in book, posters on wall, boombox stereo, warm window ...
[inemaimg] ✅ saved: /home/nmaldaner/projetos/timesmkt3/prj/inema/videos/criaprof/porteiro_2026-04-23/imgs/cena07-ini.png  (server=2.12s wall=2.2s vram=32.3GB)
── 14/50 ── cena07-fim.png
[inemaimg] model=flux2-klein quality=fast ratio=1:1 (512x512) steps=4
[inemaimg] prompt: Brazilian man with warm medium skin, short neat dark hair often with silver, alert attentive eyes, calm vigilant concier...
[inemaimg] ✅ saved: /home/nmaldaner/projetos/timesmkt3/prj/inema/videos/criaprof/porteiro_2026-04-23/imgs/cena07-fim.png  (server=2.13s wall=2.2s vram=32.3GB)
── 15/50 ── cena08-ini.png
[inemaimg] model=flux2-klein quality=fast ratio=1:1 (512x512) steps=4
[inemaimg] prompt: Late 1990s brazilian dining table with a security course brochure (course catalog, vestibular books), family kitchen war...
[inemaimg] ✅ saved: /home/nmaldaner/projetos/timesmkt3/prj/inema/videos/criaprof/porteiro_2026-04-23/imgs/cena08-ini.png  (server=2.13s wall=2.2s vram=32.3GB)
── 16/50 ── cena08-fim.png
[inemaimg] model=flux2-klein quality=fast ratio=1:1 (512x512) steps=4
[inemaimg] prompt: Brazilian man with warm medium skin, short neat dark hair often with silver, alert attentive eyes, calm vigilant concier...
[inemaimg] ✅ saved: /home/nmaldaner/projetos/timesmkt3/prj/inema/videos/criaprof/porteiro_2026-04-23/imgs/cena08-fim.png  (server=2.12s wall=2.2s vram=32.3GB)
── 17/50 ── cena09-ini.png
[inemaimg] model=flux2-klein quality=fast ratio=1:1 (512x512) steps=4
[inemaimg] prompt: Early 2000s brazilian security technical school hallway with bulletin board, backpacks on the floor, natural daylight th...
[inemaimg] ✅ saved: /home/nmaldaner/projetos/timesmkt3/prj/inema/videos/criaprof/porteiro_2026-04-23/imgs/cena09-ini.png  (server=2.12s wall=2.2s vram=32.3GB)
── 18/50 ── cena09-fim.png
[inemaimg] model=flux2-klein quality=fast ratio=1:1 (512x512) steps=4
[inemaimg] prompt: Brazilian man with warm medium skin, short neat dark hair often with silver, alert attentive eyes, calm vigilant concier...
[inemaimg] ✅ saved: /home/nmaldaner/projetos/timesmkt3/prj/inema/videos/criaprof/porteiro_2026-04-23/imgs/cena09-fim.png  (server=2.13s wall=2.2s vram=32.3GB)
── 19/50 ── cena10-ini.png
[inemaimg] model=flux2-klein quality=fast ratio=1:1 (512x512) steps=4
[inemaimg] prompt: University study room with security training manuals and building layouts, notebooks piled, coffee cup, clean daylight, ...
[inemaimg] ✅ saved: /home/nmaldaner/projetos/timesmkt3/prj/inema/videos/criaprof/porteiro_2026-04-23/imgs/cena10-ini.png  (server=2.13s wall=2.2s vram=32.3GB)
── 20/50 ── cena10-fim.png
[inemaimg] model=flux2-klein quality=fast ratio=1:1 (512x512) steps=4
[inemaimg] prompt: Brazilian man with warm medium skin, short neat dark hair often with silver, alert attentive eyes, calm vigilant concier...
[inemaimg] ✅ saved: /home/nmaldaner/projetos/timesmkt3/prj/inema/videos/criaprof/porteiro_2026-04-23/imgs/cena10-fim.png  (server=2.12s wall=2.2s vram=32.3GB)
── 21/50 ── cena11-ini.png
[inemaimg] model=flux2-klein quality=fast ratio=1:1 (512x512) steps=4
[inemaimg] prompt: Small small brazilian apartment building lobby with a lobby desk with intercom, keys, visitor logbook, soft neutral dayl...
[inemaimg] ✅ saved: /home/nmaldaner/projetos/timesmkt3/prj/inema/videos/criaprof/porteiro_2026-04-23/imgs/cena11-ini.png  (server=2.12s wall=2.2s vram=32.3GB)
── 22/50 ── cena11-fim.png
[inemaimg] model=flux2-klein quality=fast ratio=1:1 (512x512) steps=4
[inemaimg] prompt: Brazilian man with warm medium skin, short neat dark hair often with silver, alert attentive eyes, calm vigilant concier...
[inemaimg] ✅ saved: /home/nmaldaner/projetos/timesmkt3/prj/inema/videos/criaprof/porteiro_2026-04-23/imgs/cena11-fim.png  (server=2.12s wall=2.2s vram=32.3GB)
── 23/50 ── cena12-ini.png
[inemaimg] model=flux2-klein quality=fast ratio=1:1 (512x512) steps=4
[inemaimg] prompt: Early 2000s graduation scene, empty graduation cap and diploma on a table, family photograph nearby, soft warm light, ci...
[inemaimg] ✅ saved: /home/nmaldaner/projetos/timesmkt3/prj/inema/videos/criaprof/porteiro_2026-04-23/imgs/cena12-ini.png  (server=2.12s wall=2.2s vram=32.3GB)
── 24/50 ── cena12-fim.png
[inemaimg] model=flux2-klein quality=fast ratio=1:1 (512x512) steps=4
[inemaimg] prompt: Brazilian man with warm medium skin, short neat dark hair often with silver, alert attentive eyes, calm vigilant concier...
[inemaimg] ✅ saved: /home/nmaldaner/projetos/timesmkt3/prj/inema/videos/criaprof/porteiro_2026-04-23/imgs/cena12-fim.png  (server=2.12s wall=2.2s vram=32.3GB)
── 25/50 ── cena13-ini.png
[inemaimg] model=flux2-klein quality=fast ratio=1:1 (512x512) steps=4
[inemaimg] prompt: brazilian apartment building lobby in 2000s with an intercom, paper visitor logbook and keys on a work surface, warm pro...
[inemaimg] ✅ saved: /home/nmaldaner/projetos/timesmkt3/prj/inema/videos/criaprof/porteiro_2026-04-23/imgs/cena13-ini.png  (server=2.12s wall=2.2s vram=32.3GB)
── 26/50 ── cena13-fim.png
[inemaimg] model=flux2-klein quality=fast ratio=1:1 (512x512) steps=4
[inemaimg] prompt: Brazilian man with warm medium skin, short neat dark hair often with silver, alert attentive eyes, calm vigilant concier...
[inemaimg] ✅ saved: /home/nmaldaner/projetos/timesmkt3/prj/inema/videos/criaprof/porteiro_2026-04-23/imgs/cena13-fim.png  (server=2.13s wall=2.2s vram=32.3GB)
── 27/50 ── cena14-ini.png
[inemaimg] model=flux2-klein quality=fast ratio=1:1 (512x512) steps=4
[inemaimg] prompt: Well-organized brazilian apartment building lobby with organized lobby desk, key cabinet, CCTV monitor, soft morning lig...
[inemaimg] ✅ saved: /home/nmaldaner/projetos/timesmkt3/prj/inema/videos/criaprof/porteiro_2026-04-23/imgs/cena14-ini.png  (server=2.13s wall=2.2s vram=32.3GB)
── 28/50 ── cena14-fim.png
[inemaimg] model=flux2-klein quality=fast ratio=1:1 (512x512) steps=4
[inemaimg] prompt: Brazilian man with warm medium skin, short neat dark hair often with silver, alert attentive eyes, calm vigilant concier...
[inemaimg] ✅ saved: /home/nmaldaner/projetos/timesmkt3/prj/inema/videos/criaprof/porteiro_2026-04-23/imgs/cena14-fim.png  (server=2.13s wall=2.2s vram=32.3GB)
── 29/50 ── cena15-ini.png
[inemaimg] model=flux2-klein quality=fast ratio=1:1 (512x512) steps=4
[inemaimg] prompt: brazilian apartment building lobby set up for a resident assistance, chairs or bed positioned, natural light, cinematic,...
[inemaimg] ✅ saved: /home/nmaldaner/projetos/timesmkt3/prj/inema/videos/criaprof/porteiro_2026-04-23/imgs/cena15-ini.png  (server=2.12s wall=2.2s vram=32.3GB)
── 30/50 ── cena15-fim.png
[inemaimg] model=flux2-klein quality=fast ratio=1:1 (512x512) steps=4
[inemaimg] prompt: Brazilian man with warm medium skin, short neat dark hair often with silver, alert attentive eyes, calm vigilant concier...
[inemaimg] ✅ saved: /home/nmaldaner/projetos/timesmkt3/prj/inema/videos/criaprof/porteiro_2026-04-23/imgs/cena15-fim.png  (server=2.12s wall=2.2s vram=32.3GB)
── 31/50 ── cena16-ini.png
[inemaimg] model=flux2-klein quality=fast ratio=1:1 (512x512) steps=4
[inemaimg] prompt: brazilian apartment building lobby in 2010s with a desktop monitor showing building management software, cables visible,...
[inemaimg] ✅ saved: /home/nmaldaner/projetos/timesmkt3/prj/inema/videos/criaprof/porteiro_2026-04-23/imgs/cena16-ini.png  (server=2.12s wall=2.2s vram=32.3GB)
── 32/50 ── cena16-fim.png
[inemaimg] model=flux2-klein quality=fast ratio=1:1 (512x512) steps=4
[inemaimg] prompt: Brazilian man with warm medium skin, short neat dark hair often with silver, alert attentive eyes, calm vigilant concier...
[inemaimg] ✅ saved: /home/nmaldaner/projetos/timesmkt3/prj/inema/videos/criaprof/porteiro_2026-04-23/imgs/cena16-fim.png  (server=2.13s wall=2.2s vram=32.3GB)
── 33/50 ── cena17-ini.png
[inemaimg] model=flux2-klein quality=fast ratio=1:1 (512x512) steps=4
[inemaimg] prompt: Close-up on a smartphone running a resident communication mobile app next to an intercom, paper visitor logbook and keys...
[inemaimg] ✅ saved: /home/nmaldaner/projetos/timesmkt3/prj/inema/videos/criaprof/porteiro_2026-04-23/imgs/cena17-ini.png  (server=2.13s wall=2.2s vram=32.3GB)
── 34/50 ── cena17-fim.png
[inemaimg] model=flux2-klein quality=fast ratio=1:1 (512x512) steps=4
[inemaimg] prompt: Brazilian man with warm medium skin, short neat dark hair often with silver, alert attentive eyes, calm vigilant concier...
[inemaimg] ✅ saved: /home/nmaldaner/projetos/timesmkt3/prj/inema/videos/criaprof/porteiro_2026-04-23/imgs/cena17-fim.png  (server=2.12s wall=2.2s vram=32.3GB)
── 35/50 ── cena18-ini.png
[inemaimg] model=flux2-klein quality=fast ratio=1:1 (512x512) steps=4
[inemaimg] prompt: brazilian apartment building lobby with a tripod smartphone set up for building-security tip short video, ring light vis...
[inemaimg] ✅ saved: /home/nmaldaner/projetos/timesmkt3/prj/inema/videos/criaprof/porteiro_2026-04-23/imgs/cena18-ini.png  (server=2.12s wall=2.2s vram=32.3GB)
── 36/50 ── cena18-fim.png
[inemaimg] model=flux2-klein quality=fast ratio=1:1 (512x512) steps=4
[inemaimg] prompt: Brazilian man with warm medium skin, short neat dark hair often with silver, alert attentive eyes, calm vigilant concier...
[inemaimg] ✅ saved: /home/nmaldaner/projetos/timesmkt3/prj/inema/videos/criaprof/porteiro_2026-04-23/imgs/cena18-fim.png  (server=2.13s wall=2.2s vram=32.3GB)
── 37/50 ── cena19-ini.png
[inemaimg] model=flux2-klein quality=fast ratio=1:1 (512x512) steps=4
[inemaimg] prompt: Home office with a laptop showing a video-call remote monitoring coordination, soft daylight, 2020-era improvised worksp...
[inemaimg] ✅ saved: /home/nmaldaner/projetos/timesmkt3/prj/inema/videos/criaprof/porteiro_2026-04-23/imgs/cena19-ini.png  (server=2.12s wall=2.2s vram=32.3GB)
── 38/50 ── cena19-fim.png
[inemaimg] model=flux2-klein quality=fast ratio=1:1 (512x512) steps=4
[inemaimg] prompt: Brazilian man with warm medium skin, short neat dark hair often with silver, alert attentive eyes, calm vigilant concier...
[inemaimg] ✅ saved: /home/nmaldaner/projetos/timesmkt3/prj/inema/videos/criaprof/porteiro_2026-04-23/imgs/cena19-fim.png  (server=2.13s wall=2.2s vram=32.3GB)
── 39/50 ── cena20-ini.png
[inemaimg] model=flux2-klein quality=fast ratio=1:1 (512x512) steps=4
[inemaimg] prompt: Close-up of a monitor showing a building access and package-delivery dashboard, modern clinical/professional UI, teal ac...
[inemaimg] ✅ saved: /home/nmaldaner/projetos/timesmkt3/prj/inema/videos/criaprof/porteiro_2026-04-23/imgs/cena20-ini.png  (server=2.12s wall=2.2s vram=32.3GB)
── 40/50 ── cena20-fim.png
[inemaimg] model=flux2-klein quality=fast ratio=1:1 (512x512) steps=4
[inemaimg] prompt: Brazilian man with warm medium skin, short neat dark hair often with silver, alert attentive eyes, calm vigilant concier...
[inemaimg] ✅ saved: /home/nmaldaner/projetos/timesmkt3/prj/inema/videos/criaprof/porteiro_2026-04-23/imgs/cena20-fim.png  (server=2.13s wall=2.2s vram=32.3GB)
── 41/50 ── cena21-ini.png
[inemaimg] model=flux2-klein quality=fast ratio=1:1 (512x512) steps=4
[inemaimg] prompt: Clean modern screen showing an AI face-recognition and access-control tool with personalized output and progress charts,...
[inemaimg] ✅ saved: /home/nmaldaner/projetos/timesmkt3/prj/inema/videos/criaprof/porteiro_2026-04-23/imgs/cena21-ini.png  (server=2.12s wall=2.2s vram=32.3GB)
── 42/50 ── cena21-fim.png
[inemaimg] model=flux2-klein quality=fast ratio=1:1 (512x512) steps=4
[inemaimg] prompt: Brazilian man with warm medium skin, short neat dark hair often with silver, alert attentive eyes, calm vigilant concier...
[inemaimg] ✅ saved: /home/nmaldaner/projetos/timesmkt3/prj/inema/videos/criaprof/porteiro_2026-04-23/imgs/cena21-fim.png  (server=2.12s wall=2.2s vram=32.3GB)
── 43/50 ── cena22-ini.png
[inemaimg] model=flux2-klein quality=fast ratio=1:1 (512x512) steps=4
[inemaimg] prompt: brazilian apartment building lobby with a an AI visitor-log and package-tracking tool on a tablet subtly integrated into...
[inemaimg] ✅ saved: /home/nmaldaner/projetos/timesmkt3/prj/inema/videos/criaprof/porteiro_2026-04-23/imgs/cena22-ini.png  (server=2.13s wall=2.2s vram=32.3GB)
── 44/50 ── cena22-fim.png
[inemaimg] model=flux2-klein quality=fast ratio=1:1 (512x512) steps=4
[inemaimg] prompt: Brazilian man with warm medium skin, short neat dark hair often with silver, alert attentive eyes, calm vigilant concier...
[inemaimg] ✅ saved: /home/nmaldaner/projetos/timesmkt3/prj/inema/videos/criaprof/porteiro_2026-04-23/imgs/cena22-fim.png  (server=2.12s wall=2.2s vram=32.3GB)
── 45/50 ── cena23-ini.png
[inemaimg] model=flux2-klein quality=fast ratio=1:1 (512x512) steps=4
[inemaimg] prompt: brazilian apartment building lobby with a junior colleague's notebook open, older mentor's hand gesturing to explain, so...
[inemaimg] ✅ saved: /home/nmaldaner/projetos/timesmkt3/prj/inema/videos/criaprof/porteiro_2026-04-23/imgs/cena23-ini.png  (server=2.12s wall=2.2s vram=32.3GB)
── 46/50 ── cena23-fim.png
[inemaimg] model=flux2-klein quality=fast ratio=1:1 (512x512) steps=4
[inemaimg] prompt: Brazilian man with warm medium skin, short neat dark hair often with silver, alert attentive eyes, calm vigilant concier...
[inemaimg] ✅ saved: /home/nmaldaner/projetos/timesmkt3/prj/inema/videos/criaprof/porteiro_2026-04-23/imgs/cena23-fim.png  (server=2.12s wall=2.2s vram=32.3GB)
── 47/50 ── cena24-ini.png
[inemaimg] model=flux2-klein quality=fast ratio=1:1 (512x512) steps=4
[inemaimg] prompt: Bright modern brazilian apartment building lobby space with equipment and tools in soft out-of-focus background, warm-co...
[inemaimg] ✅ saved: /home/nmaldaner/projetos/timesmkt3/prj/inema/videos/criaprof/porteiro_2026-04-23/imgs/cena24-ini.png  (server=2.12s wall=2.2s vram=32.3GB)
── 48/50 ── cena24-fim.png
[inemaimg] model=flux2-klein quality=fast ratio=1:1 (512x512) steps=4
[inemaimg] prompt: Heroic cinematic close-up portrait of the same Brazilian man with warm medium skin, short neat dark hair often with silv...
[inemaimg] ✅ saved: /home/nmaldaner/projetos/timesmkt3/prj/inema/videos/criaprof/porteiro_2026-04-23/imgs/cena24-fim.png  (server=2.12s wall=2.2s vram=32.3GB)
── 49/50 ── cena25-ini.png
[inemaimg] model=flux2-klein quality=fast ratio=1:1 (512x512) steps=4
[inemaimg] prompt: Wide cinematic shot of brazilian apartment building lobby bathed in golden-hour window light, equipment arranged, sense ...
[inemaimg] ✅ saved: /home/nmaldaner/projetos/timesmkt3/prj/inema/videos/criaprof/porteiro_2026-04-23/imgs/cena25-ini.png  (server=2.12s wall=2.2s vram=32.3GB)
── 50/50 ── cena25-fim.png
[inemaimg] model=flux2-klein quality=fast ratio=1:1 (512x512) steps=4
[inemaimg] prompt: Wide cinematic shot of the same Brazilian man with warm medium skin, short neat dark hair often with silver, alert atten...
[inemaimg] ✅ saved: /home/nmaldaner/projetos/timesmkt3/prj/inema/videos/criaprof/porteiro_2026-04-23/imgs/cena25-fim.png  (server=2.13s wall=2.2s vram=32.3GB)

[criaprof:porteiro] ✅ 50/50 em 110.0s (fails=0)

=== 2026-04-23T10:29:08.557Z node gen-gertran-nostalgia.js porteiro ===

[gertran-nostalgia:porteiro] 20 imagens em /home/nmaldaner/projetos/timesmkt3/prj/inema/videos/gertran-nostalgia/porteiro_2026-04-23/imgs

── 1/20 ── nost01.png
[inemaimg] model=flux2-klein quality=fast ratio=1:1 (512x512) steps=4
[inemaimg] prompt: Close-up of a 1980s brazilian apartment lobby with intercom and paper logbook, shot on 35mm film, cinematic grading, war...
[inemaimg] ✅ saved: /home/nmaldaner/projetos/timesmkt3/prj/inema/videos/gertran-nostalgia/porteiro_2026-04-23/imgs/nost01.png  (server=2.13s wall=2.2s vram=32.3GB)
── 2/20 ── nost02.png
[inemaimg] model=flux2-klein quality=fast ratio=1:1 (512x512) steps=4
[inemaimg] prompt: Vintage brazilian building lobby with key rack and classic doorman uniform, shot on 35mm film, cinematic grading, warm t...
[inemaimg] ✅ saved: /home/nmaldaner/projetos/timesmkt3/prj/inema/videos/gertran-nostalgia/porteiro_2026-04-23/imgs/nost02.png  (server=2.12s wall=2.2s vram=32.3GB)
── 3/20 ── nost03.png
[inemaimg] model=flux2-klein quality=fast ratio=1:1 (512x512) steps=4
[inemaimg] prompt: Early 2000s lobby with a desktop computer running building management software, cinematic, shallow depth of field, natur...
[inemaimg] ✅ saved: /home/nmaldaner/projetos/timesmkt3/prj/inema/videos/gertran-nostalgia/porteiro_2026-04-23/imgs/nost03.png  (server=2.13s wall=2.2s vram=32.3GB)
── 4/20 ── nost04.png
[inemaimg] model=flux2-klein quality=fast ratio=1:1 (512x512) steps=4
[inemaimg] prompt: Close-up of a modern keycard access reader replacing a traditional key, cinematic, shallow depth of field, natural light...
[inemaimg] ✅ saved: /home/nmaldaner/projetos/timesmkt3/prj/inema/videos/gertran-nostalgia/porteiro_2026-04-23/imgs/nost04.png  (server=2.13s wall=2.2s vram=32.3GB)
── 5/20 ── nost05.png
[inemaimg] model=flux2-klein quality=fast ratio=1:1 (512x512) steps=4
[inemaimg] prompt: A smartphone showing a resident communication app in a lobby, cinematic, shallow depth of field, natural light, editoria...
[inemaimg] ✅ saved: /home/nmaldaner/projetos/timesmkt3/prj/inema/videos/gertran-nostalgia/porteiro_2026-04-23/imgs/nost05.png  (server=2.12s wall=2.2s vram=32.3GB)
── 6/20 ── nost06.png
[inemaimg] model=flux2-klein quality=fast ratio=1:1 (512x512) steps=4
[inemaimg] prompt: Modern tablet showing AI face-recognition access-control with resident photos, neo-noir clinical lighting, soft glassmor...
[inemaimg] ✅ saved: /home/nmaldaner/projetos/timesmkt3/prj/inema/videos/gertran-nostalgia/porteiro_2026-04-23/imgs/nost06.png  (server=2.12s wall=2.2s vram=32.3GB)
── 7/20 ── nost07.png
[inemaimg] model=flux2-klein quality=fast ratio=1:1 (512x512) steps=4
[inemaimg] prompt: Doorman using AI visitor-log and package-tracking tool on a tablet, neo-noir clinical lighting, soft glassmorphism, teal...
[inemaimg] ✅ saved: /home/nmaldaner/projetos/timesmkt3/prj/inema/videos/gertran-nostalgia/porteiro_2026-04-23/imgs/nost07.png  (server=2.13s wall=2.2s vram=32.3GB)
── 8/20 ── nost08.png
[inemaimg] model=flux2-klein quality=fast ratio=1:1 (512x512) steps=4
[inemaimg] prompt: Cinematic wide shot of a modern apartment lobby integrating service tradition and AI, neo-noir clinical lighting, soft g...
[inemaimg] ✅ saved: /home/nmaldaner/projetos/timesmkt3/prj/inema/videos/gertran-nostalgia/porteiro_2026-04-23/imgs/nost08.png  (server=2.12s wall=2.2s vram=32.3GB)
── 9/20 ── nost09.png
[inemaimg] model=flux2-klein quality=fast ratio=1:1 (512x512) steps=4
[inemaimg] prompt: Cinematic wide shot of a modern brazilian apartment building lobby integrating classic expertise and AI technology, neo-...
[inemaimg] ✅ saved: /home/nmaldaner/projetos/timesmkt3/prj/inema/videos/gertran-nostalgia/porteiro_2026-04-23/imgs/nost09.png  (server=2.12s wall=2.2s vram=32.3GB)
── 10/20 ── nost10.png
[inemaimg] model=flux2-klein quality=fast ratio=1:1 (512x512) steps=4
[inemaimg] prompt: Nostalgic 1980s brazilian brazilian apartment building lobby with analog tools and warm afternoon light, shot on 35mm fi...
[inemaimg] ✅ saved: /home/nmaldaner/projetos/timesmkt3/prj/inema/videos/gertran-nostalgia/porteiro_2026-04-23/imgs/nost10.png  (server=2.12s wall=2.2s vram=32.3GB)
── 11/20 ── nost11.png
[inemaimg] model=flux2-klein quality=fast ratio=1:1 (512x512) steps=4
[inemaimg] prompt: Close-up of a hand-written note from the 1980s with blue ink, shot on 35mm film, cinematic grading, warm tungsten light,...
[inemaimg] ✅ saved: /home/nmaldaner/projetos/timesmkt3/prj/inema/videos/gertran-nostalgia/porteiro_2026-04-23/imgs/nost11.png  (server=2.12s wall=2.2s vram=32.3GB)
── 12/20 ── nost12.png
[inemaimg] model=flux2-klein quality=fast ratio=1:1 (512x512) steps=4
[inemaimg] prompt: Vintage an intercom, paper visitor logbook and keys on a wooden surface, 1980s domestic warmth, shot on 35mm film, cinem...
[inemaimg] ✅ saved: /home/nmaldaner/projetos/timesmkt3/prj/inema/videos/gertran-nostalgia/porteiro_2026-04-23/imgs/nost12.png  (server=2.12s wall=2.2s vram=32.3GB)
── 13/20 ── nost13.png
[inemaimg] model=flux2-klein quality=fast ratio=1:1 (512x512) steps=4
[inemaimg] prompt: Early 2000s brazilian apartment building lobby with a desktop computer showing building management software, cinematic, ...
[inemaimg] ✅ saved: /home/nmaldaner/projetos/timesmkt3/prj/inema/videos/gertran-nostalgia/porteiro_2026-04-23/imgs/nost13.png  (server=2.13s wall=2.2s vram=32.3GB)
── 14/20 ── nost14.png
[inemaimg] model=flux2-klein quality=fast ratio=1:1 (512x512) steps=4
[inemaimg] prompt: Close-up of a smartphone running a resident communication mobile app next to an intercom, paper visitor logbook and keys...
[inemaimg] ✅ saved: /home/nmaldaner/projetos/timesmkt3/prj/inema/videos/gertran-nostalgia/porteiro_2026-04-23/imgs/nost14.png  (server=2.12s wall=2.2s vram=32.3GB)
── 15/20 ── nost15.png
[inemaimg] model=flux2-klein quality=fast ratio=1:1 (512x512) steps=4
[inemaimg] prompt: A laptop showing a remote monitoring coordination session, 2020-era improvised home workspace, cinematic, shallow depth ...
[inemaimg] ✅ saved: /home/nmaldaner/projetos/timesmkt3/prj/inema/videos/gertran-nostalgia/porteiro_2026-04-23/imgs/nost15.png  (server=2.13s wall=2.2s vram=32.3GB)
── 16/20 ── nost16.png
[inemaimg] model=flux2-klein quality=fast ratio=1:1 (512x512) steps=4
[inemaimg] prompt: Modern monitor showing a building access and package-delivery dashboard with teal UI accents, neo-noir clinical lighting...
[inemaimg] ✅ saved: /home/nmaldaner/projetos/timesmkt3/prj/inema/videos/gertran-nostalgia/porteiro_2026-04-23/imgs/nost16.png  (server=2.12s wall=2.2s vram=32.3GB)
── 17/20 ── nost17.png
[inemaimg] model=flux2-klein quality=fast ratio=1:1 (512x512) steps=4
[inemaimg] prompt: Close-up of an AI visitor-log and package-tracking tool on a tablet running on a tablet, professional hand swiping, neo-...
[inemaimg] ✅ saved: /home/nmaldaner/projetos/timesmkt3/prj/inema/videos/gertran-nostalgia/porteiro_2026-04-23/imgs/nost17.png  (server=2.12s wall=2.2s vram=32.3GB)
── 18/20 ── nost18.png
[inemaimg] model=flux2-klein quality=fast ratio=1:1 (512x512) steps=4
[inemaimg] prompt: Cinematic wide shot of a modern brazilian apartment building lobby integrating classic expertise and AI technology, neo-...
[inemaimg] ✅ saved: /home/nmaldaner/projetos/timesmkt3/prj/inema/videos/gertran-nostalgia/porteiro_2026-04-23/imgs/nost18.png  (server=2.12s wall=2.2s vram=32.3GB)
── 19/20 ── nost19.png
[inemaimg] model=flux2-klein quality=fast ratio=1:1 (512x512) steps=4
[inemaimg] prompt: Nostalgic 1980s brazilian brazilian apartment building lobby with analog tools and warm afternoon light, shot on 35mm fi...
[inemaimg] ✅ saved: /home/nmaldaner/projetos/timesmkt3/prj/inema/videos/gertran-nostalgia/porteiro_2026-04-23/imgs/nost19.png  (server=2.13s wall=2.2s vram=32.3GB)
── 20/20 ── nost20.png
[inemaimg] model=flux2-klein quality=fast ratio=1:1 (512x512) steps=4
[inemaimg] prompt: Close-up of a hand-written note from the 1980s with blue ink, shot on 35mm film, cinematic grading, warm tungsten light,...
[inemaimg] ✅ saved: /home/nmaldaner/projetos/timesmkt3/prj/inema/videos/gertran-nostalgia/porteiro_2026-04-23/imgs/nost20.png  (server=2.13s wall=2.2s vram=32.3GB)

[gertran-nostalgia:porteiro] ✅ 20/20 em 44.0s (fails=0)

=== 2026-04-23T10:29:52.596Z node pipeline/generate-audio.js /tmp/narr/narr-criaprof-porteiro.mp3 Você foi a criança que já sabia o nome de todo vizinho. Aprendeu cada rotina, virou porteiro, cuidou de milhares de famílias. Viu o livro virar sistema, a chave virar cartão, o interfone virar app. Agora a IA reconhece morador e encomenda. Você continua sendo o bom dia do dia inteiro. Continue aprendendo no Inema ponto CLUB. bella ===
  ✅ Chatterbox VC saved: /tmp/narr/narr-criaprof-porteiro.mp3 (voice rachel, 326 chars)
✅ Audio saved: /tmp/narr/narr-criaprof-porteiro.mp3
Provider: chatterbox-vc

=== 2026-04-23T10:29:56.895Z node pipeline/generate-audio.js /tmp/narr/narr-gertran-porteiro.mp3 Você viu o livro virar sistema, a chave virar cartão, o acesso virar AI. Você se adaptou sempre. Agora chegou a inteligência artificial. E você sabe o que fazer. Você é da geração que transforma. Continue aprendendo no Inema ponto CLUB. bella ===
  ✅ Chatterbox VC saved: /tmp/narr/narr-gertran-porteiro.mp3 (voice rachel, 236 chars)
✅ Audio saved: /tmp/narr/narr-gertran-porteiro.mp3
Provider: chatterbox-vc

=== 2026-04-23T10:30:01.353Z source /home/nmaldaner/miniconda3/etc/profile.d/conda.sh && conda activate chatterbox && python3 transcribe-words.py /tmp/narr/narr-criaprof-porteiro.mp3 /tmp/narr/whisper-criaprof-porteiro.json && python3 transcribe-words.py /tmp/narr/narr-gertran-porteiro.mp3 /tmp/narr/whisper-gertran-porteiro.json ===
[whisper] device=cuda loading large-v3...
/home/nmaldaner/miniconda3/envs/chatterbox/lib/python3.11/site-packages/torch/cuda/__init__.py:435: UserWarning: 
    Found GPU0 NVIDIA GB10 which is of cuda capability 12.1.
    Minimum and Maximum cuda capability supported by this version of PyTorch is
    (8.0) - (12.0)
    
  queued_call()
  0%|          | 0/2216 [00:00<?, ?frames/s]100%|██████████| 2216/2216 [00:04<00:00, 445.01frames/s]100%|██████████| 2216/2216 [00:04<00:00, 445.00frames/s]
[whisper] 57 palavras -> 14 chunks -> /tmp/narr/whisper-criaprof-porteiro.json
[whisper] device=cuda loading large-v3...
/home/nmaldaner/miniconda3/envs/chatterbox/lib/python3.11/site-packages/torch/cuda/__init__.py:435: UserWarning: 
    Found GPU0 NVIDIA GB10 which is of cuda capability 12.1.
    Minimum and Maximum cuda capability supported by this version of PyTorch is
    (8.0) - (12.0)
    
  queued_call()
  0%|          | 0/1712 [00:00<?, ?frames/s]100%|██████████| 1712/1712 [00:03<00:00, 441.40frames/s]100%|██████████| 1712/1712 [00:03<00:00, 441.38frames/s]
[whisper] 41 palavras -> 11 chunks -> /tmp/narr/whisper-gertran-porteiro.json

=== 2026-04-23T10:30:31.116Z node render-criaprof.js porteiro ===
[porteiro] detectou N_SCENES=25
[porteiro] 14 captions via whisper (offset +0.8s)
[porteiro] render -> /home/nmaldaner/projetos/timesmkt3/prj/inema/videos/criaprof/porteiro_2026-04-23/video/porteiro-criaprof.mp4
ffmpeg version 6.1.1-3ubuntu5 Copyright (c) 2000-2023 the FFmpeg developers
  built with gcc 13 (Ubuntu 13.2.0-23ubuntu3)
  configuration: --prefix=/usr --extra-version=3ubuntu5 --toolchain=hardened --libdir=/usr/lib/aarch64-linux-gnu --incdir=/usr/include/aarch64-linux-gnu --arch=arm64 --enable-gpl --disable-stripping --disable-omx --enable-gnutls --enable-libaom --enable-libass --enable-libbs2b --enable-libcaca --enable-libcdio --enable-libcodec2 --enable-libdav1d --enable-libflite --enable-libfontconfig --enable-libfreetype --enable-libfribidi --enable-libglslang --enable-libgme --enable-libgsm --enable-libharfbuzz --enable-libmp3lame --enable-libmysofa --enable-libopenjpeg --enable-libopenmpt --enable-libopus --enable-librubberband --enable-libshine --enable-libsnappy --enable-libsoxr --enable-libspeex --enable-libtheora --enable-libtwolame --enable-libvidstab --enable-libvorbis --enable-libvpx --enable-libwebp --enable-libx265 --enable-libxml2 --enable-libxvid --enable-libzimg --enable-openal --enable-opencl --enable-opengl --disable-sndio --enable-libdc1394 --enable-libdrm --enable-libiec61883 --enable-chromaprint --enable-frei0r --enable-ladspa --enable-libbluray --enable-libjack --enable-libpulse --enable-librabbitmq --enable-librist --enable-libsrt --enable-libssh --enable-libsvtav1 --enable-libx264 --enable-libzmq --enable-libzvbi --enable-lv2 --enable-sdl2 --enable-libplacebo --enable-librav1e --enable-pocketsphinx --enable-librsvg --enable-libjxl --enable-shared
  libavutil      58. 29.100 / 58. 29.100
  libavcodec     60. 31.102 / 60. 31.102
  libavformat    60. 16.100 / 60. 16.100
  libavdevice    60.  3.100 / 60.  3.100
  libavfilter     9. 12.100 /  9. 12.100
  libswscale      7.  5.100 /  7.  5.100
  libswresample   4. 12.100 /  4. 12.100
  libpostproc    57.  3.100 / 57.  3.100
Input #0, png_pipe, from '/home/nmaldaner/projetos/timesmkt3/prj/inema/videos/criaprof/porteiro_2026-04-23/imgs/cena01-ini.png':
  Duration: N/A, bitrate: N/A
  Stream #0:0: Video: png, rgb24(pc, gbr/unknown/unknown), 512x512, 1 fps, 1 tbr, 1 tbn
Input #1, png_pipe, from '/home/nmaldaner/projetos/timesmkt3/prj/inema/videos/criaprof/porteiro_2026-04-23/imgs/cena01-fim.png':
  Duration: N/A, bitrate: N/A
  Stream #1:0: Video: png, rgb24(pc, gbr/unknown/unknown), 512x512, 1 fps, 1 tbr, 1 tbn
Input #2, png_pipe, from '/home/nmaldaner/projetos/timesmkt3/prj/inema/videos/criaprof/porteiro_2026-04-23/imgs/cena02-ini.png':
  Duration: N/A, bitrate: N/A
  Stream #2:0: Video: png, rgb24(pc, gbr/unknown/unknown), 512x512, 1 fps, 1 tbr, 1 tbn
Input #3, png_pipe, from '/home/nmaldaner/projetos/timesmkt3/prj/inema/videos/criaprof/porteiro_2026-04-23/imgs/cena02-fim.png':
  Duration: N/A, bitrate: N/A
  Stream #3:0: Video: png, rgb24(pc, gbr/unknown/unknown), 512x512, 1 fps, 1 tbr, 1 tbn
Input #4, png_pipe, from '/home/nmaldaner/projetos/timesmkt3/prj/inema/videos/criaprof/porteiro_2026-04-23/imgs/cena03-ini.png':
  Duration: N/A, bitrate: N/A
  Stream #4:0: Video: png, rgb24(pc, gbr/unknown/unknown), 512x512, 1 fps, 1 tbr, 1 tbn
Input #5, png_pipe, from '/home/nmaldaner/projetos/timesmkt3/prj/inema/videos/criaprof/porteiro_2026-04-23/imgs/cena03-fim.png':
  Duration: N/A, bitrate: N/A
  Stream #5:0: Video: png, rgb24(pc, gbr/unknown/unknown), 512x512, 1 fps, 1 tbr, 1 tbn
Input #6, png_pipe, from '/home/nmaldaner/projetos/timesmkt3/prj/inema/videos/criaprof/porteiro_2026-04-23/imgs/cena04-ini.png':
  Duration: N/A, bitrate: N/A
  Stream #6:0: Video: png, rgb24(pc, gbr/unknown/unknown), 512x512, 1 fps, 1 tbr, 1 tbn
Input #7, png_pipe, from '/home/nmaldaner/projetos/timesmkt3/prj/inema/videos/criaprof/porteiro_2026-04-23/imgs/cena04-fim.png':
  Duration: N/A, bitrate: N/A
  Stream #7:0: Video: png, rgb24(pc, gbr/unknown/unknown), 512x512, 1 fps, 1 tbr, 1 tbn
Input #8, png_pipe, from '/home/nmaldaner/projetos/timesmkt3/prj/inema/videos/criaprof/porteiro_2026-04-23/imgs/cena05-ini.png':
  Duration: N/A, bitrate: N/A
  Stream #8:0: Video: png, rgb24(pc, gbr/unknown/unknown), 512x512, 1 fps, 1 tbr, 1 tbn
Input #9, png_pipe, from '/home/nmaldaner/projetos/timesmkt3/prj/inema/videos/criaprof/porteiro_2026-04-23/imgs/cena05-fim.png':
  Duration: N/A, bitrate: N/A
  Stream #9:0: Video: png, rgb24(pc, gbr/unknown/unknown), 512x512, 1 fps, 1 tbr, 1 tbn
Input #10, png_pipe, from '/home/nmaldaner/projetos/timesmkt3/prj/inema/videos/criaprof/porteiro_2026-04-23/imgs/cena06-ini.png':
  Duration: N/A, bitrate: N/A
  Stream #10:0: Video: png, rgb24(pc, gbr/unknown/unknown), 512x512, 1 fps, 1 tbr, 1 tbn
Input #11, png_pipe, from '/home/nmaldaner/projetos/timesmkt3/prj/inema/videos/criaprof/porteiro_2026-04-23/imgs/cena06-fim.png':
  Duration: N/A, bitrate: N/A
  Stream #11:0: Video: png, rgb24(pc, gbr/unknown/unknown), 512x512, 1 fps, 1 tbr, 1 tbn
Input #12, png_pipe, from '/home/nmaldaner/projetos/timesmkt3/prj/inema/videos/criaprof/porteiro_2026-04-23/imgs/cena07-ini.png':
  Duration: N/A, bitrate: N/A
  Stream #12:0: Video: png, rgb24(pc, gbr/unknown/unknown), 512x512, 1 fps, 1 tbr, 1 tbn
Input #13, png_pipe, from '/home/nmaldaner/projetos/timesmkt3/prj/inema/videos/criaprof/porteiro_2026-04-23/imgs/cena07-fim.png':
  Duration: N/A, bitrate: N/A
  Stream #13:0: Video: png, rgb24(pc, gbr/unknown/unknown), 512x512, 1 fps, 1 tbr, 1 tbn
Input #14, png_pipe, from '/home/nmaldaner/projetos/timesmkt3/prj/inema/videos/criaprof/porteiro_2026-04-23/imgs/cena08-ini.png':
  Duration: N/A, bitrate: N/A
  Stream #14:0: Video: png, rgb24(pc, gbr/unknown/unknown), 512x512, 1 fps, 1 tbr, 1 tbn
Input #15, png_pipe, from '/home/nmaldaner/projetos/timesmkt3/prj/inema/videos/criaprof/porteiro_2026-04-23/imgs/cena08-fim.png':
  Duration: N/A, bitrate: N/A
  Stream #15:0: Video: png, rgb24(pc, gbr/unknown/unknown), 512x512, 1 fps, 1 tbr, 1 tbn
Input #16, png_pipe, from '/home/nmaldaner/projetos/timesmkt3/prj/inema/videos/criaprof/porteiro_2026-04-23/imgs/cena09-ini.png':
  Duration: N/A, bitrate: N/A
  Stream #16:0: Video: png, rgb24(pc, gbr/unknown/unknown), 512x512, 1 fps, 1 tbr, 1 tbn
Input #17, png_pipe, from '/home/nmaldaner/projetos/timesmkt3/prj/inema/videos/criaprof/porteiro_2026-04-23/imgs/cena09-fim.png':
  Duration: N/A, bitrate: N/A
  Stream #17:0: Video: png, rgb24(pc, gbr/unknown/unknown), 512x512, 1 fps, 1 tbr, 1 tbn
Input #18, png_pipe, from '/home/nmaldaner/projetos/timesmkt3/prj/inema/videos/criaprof/porteiro_2026-04-23/imgs/cena10-ini.png':
  Duration: N/A, bitrate: N/A
  Stream #18:0: Video: png, rgb24(pc, gbr/unknown/unknown), 512x512, 1 fps, 1 tbr, 1 tbn
Input #19, png_pipe, from '/home/nmaldaner/projetos/timesmkt3/prj/inema/videos/criaprof/porteiro_2026-04-23/imgs/cena10-fim.png':
  Duration: N/A, bitrate: N/A
  Stream #19:0: Video: png, rgb24(pc, gbr/unknown/unknown), 512x512, 1 fps, 1 tbr, 1 tbn
Input #20, png_pipe, from '/home/nmaldaner/projetos/timesmkt3/prj/inema/videos/criaprof/porteiro_2026-04-23/imgs/cena11-ini.png':
  Duration: N/A, bitrate: N/A
  Stream #20:0: Video: png, rgb24(pc, gbr/unknown/unknown), 512x512, 1 fps, 1 tbr, 1 tbn
Input #21, png_pipe, from '/home/nmaldaner/projetos/timesmkt3/prj/inema/videos/criaprof/porteiro_2026-04-23/imgs/cena11-fim.png':
  Duration: N/A, bitrate: N/A
  Stream #21:0: Video: png, rgb24(pc, gbr/unknown/unknown), 512x512, 1 fps, 1 tbr, 1 tbn
Input #22, png_pipe, from '/home/nmaldaner/projetos/timesmkt3/prj/inema/videos/criaprof/porteiro_2026-04-23/imgs/cena12-ini.png':
  Duration: N/A, bitrate: N/A
  Stream #22:0: Video: png, rgb24(pc, gbr/unknown/unknown), 512x512, 1 fps, 1 tbr, 1 tbn
Input #23, png_pipe, from '/home/nmaldaner/projetos/timesmkt3/prj/inema/videos/criaprof/porteiro_2026-04-23/imgs/cena12-fim.png':
  Duration: N/A, bitrate: N/A
  Stream #23:0: Video: png, rgb24(pc, gbr/unknown/unknown), 512x512, 1 fps, 1 tbr, 1 tbn
Input #24, png_pipe, from '/home/nmaldaner/projetos/timesmkt3/prj/inema/videos/criaprof/porteiro_2026-04-23/imgs/cena13-ini.png':
  Duration: N/A, bitrate: N/A
  Stream #24:0: Video: png, rgb24(pc, gbr/unknown/unknown), 512x512, 1 fps, 1 tbr, 1 tbn
Input #25, png_pipe, from '/home/nmaldaner/projetos/timesmkt3/prj/inema/videos/criaprof/porteiro_2026-04-23/imgs/cena13-fim.png':
  Duration: N/A, bitrate: N/A
  Stream #25:0: Video: png, rgb24(pc, gbr/unknown/unknown), 512x512, 1 fps, 1 tbr, 1 tbn
Input #26, png_pipe, from '/home/nmaldaner/projetos/timesmkt3/prj/inema/videos/criaprof/porteiro_2026-04-23/imgs/cena14-ini.png':
  Duration: N/A, bitrate: N/A
  Stream #26:0: Video: png, rgb24(pc, gbr/unknown/unknown), 512x512, 1 fps, 1 tbr, 1 tbn
Input #27, png_pipe, from '/home/nmaldaner/projetos/timesmkt3/prj/inema/videos/criaprof/porteiro_2026-04-23/imgs/cena14-fim.png':
  Duration: N/A, bitrate: N/A
  Stream #27:0: Video: png, rgb24(pc, gbr/unknown/unknown), 512x512, 1 fps, 1 tbr, 1 tbn
Input #28, png_pipe, from '/home/nmaldaner/projetos/timesmkt3/prj/inema/videos/criaprof/porteiro_2026-04-23/imgs/cena15-ini.png':
  Duration: N/A, bitrate: N/A
  Stream #28:0: Video: png, rgb24(pc, gbr/unknown/unknown), 512x512, 1 fps, 1 tbr, 1 tbn
Input #29, png_pipe, from '/home/nmaldaner/projetos/timesmkt3/prj/inema/videos/criaprof/porteiro_2026-04-23/imgs/cena15-fim.png':
  Duration: N/A, bitrate: N/A
  Stream #29:0: Video: png, rgb24(pc, gbr/unknown/unknown), 512x512, 1 fps, 1 tbr, 1 tbn
Input #30, png_pipe, from '/home/nmaldaner/projetos/timesmkt3/prj/inema/videos/criaprof/porteiro_2026-04-23/imgs/cena16-ini.png':
  Duration: N/A, bitrate: N/A
  Stream #30:0: Video: png, rgb24(pc, gbr/unknown/unknown), 512x512, 1 fps, 1 tbr, 1 tbn
Input #31, png_pipe, from '/home/nmaldaner/projetos/timesmkt3/prj/inema/videos/criaprof/porteiro_2026-04-23/imgs/cena16-fim.png':
  Duration: N/A, bitrate: N/A
  Stream #31:0: Video: png, rgb24(pc, gbr/unknown/unknown), 512x512, 1 fps, 1 tbr, 1 tbn
Input #32, png_pipe, from '/home/nmaldaner/projetos/timesmkt3/prj/inema/videos/criaprof/porteiro_2026-04-23/imgs/cena17-ini.png':
  Duration: N/A, bitrate: N/A
  Stream #32:0: Video: png, rgb24(pc, gbr/unknown/unknown), 512x512, 1 fps, 1 tbr, 1 tbn
Input #33, png_pipe, from '/home/nmaldaner/projetos/timesmkt3/prj/inema/videos/criaprof/porteiro_2026-04-23/imgs/cena17-fim.png':
  Duration: N/A, bitrate: N/A
  Stream #33:0: Video: png, rgb24(pc, gbr/unknown/unknown), 512x512, 1 fps, 1 tbr, 1 tbn
Input #34, png_pipe, from '/home/nmaldaner/projetos/timesmkt3/prj/inema/videos/criaprof/porteiro_2026-04-23/imgs/cena18-ini.png':
  Duration: N/A, bitrate: N/A
  Stream #34:0: Video: png, rgb24(pc, gbr/unknown/unknown), 512x512, 1 fps, 1 tbr, 1 tbn
Input #35, png_pipe, from '/home/nmaldaner/projetos/timesmkt3/prj/inema/videos/criaprof/porteiro_2026-04-23/imgs/cena18-fim.png':
  Duration: N/A, bitrate: N/A
  Stream #35:0: Video: png, rgb24(pc, gbr/unknown/unknown), 512x512, 1 fps, 1 tbr, 1 tbn
Input #36, png_pipe, from '/home/nmaldaner/projetos/timesmkt3/prj/inema/videos/criaprof/porteiro_2026-04-23/imgs/cena19-ini.png':
  Duration: N/A, bitrate: N/A
  Stream #36:0: Video: png, rgb24(pc, gbr/unknown/unknown), 512x512, 1 fps, 1 tbr, 1 tbn
Input #37, png_pipe, from '/home/nmaldaner/projetos/timesmkt3/prj/inema/videos/criaprof/porteiro_2026-04-23/imgs/cena19-fim.png':
  Duration: N/A, bitrate: N/A
  Stream #37:0: Video: png, rgb24(pc, gbr/unknown/unknown), 512x512, 1 fps, 1 tbr, 1 tbn
Input #38, png_pipe, from '/home/nmaldaner/projetos/timesmkt3/prj/inema/videos/criaprof/porteiro_2026-04-23/imgs/cena20-ini.png':
  Duration: N/A, bitrate: N/A
  Stream #38:0: Video: png, rgb24(pc, gbr/unknown/unknown), 512x512, 1 fps, 1 tbr, 1 tbn
Input #39, png_pipe, from '/home/nmaldaner/projetos/timesmkt3/prj/inema/videos/criaprof/porteiro_2026-04-23/imgs/cena20-fim.png':
  Duration: N/A, bitrate: N/A
  Stream #39:0: Video: png, rgb24(pc, gbr/unknown/unknown), 512x512, 1 fps, 1 tbr, 1 tbn
Input #40, png_pipe, from '/home/nmaldaner/projetos/timesmkt3/prj/inema/videos/criaprof/porteiro_2026-04-23/imgs/cena21-ini.png':
  Duration: N/A, bitrate: N/A
  Stream #40:0: Video: png, rgb24(pc, gbr/unknown/unknown), 512x512, 1 fps, 1 tbr, 1 tbn
Input #41, png_pipe, from '/home/nmaldaner/projetos/timesmkt3/prj/inema/videos/criaprof/porteiro_2026-04-23/imgs/cena21-fim.png':
  Duration: N/A, bitrate: N/A
  Stream #41:0: Video: png, rgb24(pc, gbr/unknown/unknown), 512x512, 1 fps, 1 tbr, 1 tbn
Input #42, png_pipe, from '/home/nmaldaner/projetos/timesmkt3/prj/inema/videos/criaprof/porteiro_2026-04-23/imgs/cena22-ini.png':
  Duration: N/A, bitrate: N/A
  Stream #42:0: Video: png, rgb24(pc, gbr/unknown/unknown), 512x512, 1 fps, 1 tbr, 1 tbn
Input #43, png_pipe, from '/home/nmaldaner/projetos/timesmkt3/prj/inema/videos/criaprof/porteiro_2026-04-23/imgs/cena22-fim.png':
  Duration: N/A, bitrate: N/A
  Stream #43:0: Video: png, rgb24(pc, gbr/unknown/unknown), 512x512, 1 fps, 1 tbr, 1 tbn
Input #44, png_pipe, from '/home/nmaldaner/projetos/timesmkt3/prj/inema/videos/criaprof/porteiro_2026-04-23/imgs/cena23-ini.png':
  Duration: N/A, bitrate: N/A
  Stream #44:0: Video: png, rgb24(pc, gbr/unknown/unknown), 512x512, 1 fps, 1 tbr, 1 tbn
Input #45, png_pipe, from '/home/nmaldaner/projetos/timesmkt3/prj/inema/videos/criaprof/porteiro_2026-04-23/imgs/cena23-fim.png':
  Duration: N/A, bitrate: N/A
  Stream #45:0: Video: png, rgb24(pc, gbr/unknown/unknown), 512x512, 1 fps, 1 tbr, 1 tbn
Input #46, png_pipe, from '/home/nmaldaner/projetos/timesmkt3/prj/inema/videos/criaprof/porteiro_2026-04-23/imgs/cena24-ini.png':
  Duration: N/A, bitrate: N/A
  Stream #46:0: Video: png, rgb24(pc, gbr/unknown/unknown), 512x512, 1 fps, 1 tbr, 1 tbn
Input #47, png_pipe, from '/home/nmaldaner/projetos/timesmkt3/prj/inema/videos/criaprof/porteiro_2026-04-23/imgs/cena24-fim.png':
  Duration: N/A, bitrate: N/A
  Stream #47:0: Video: png, rgb24(pc, gbr/unknown/unknown), 512x512, 1 fps, 1 tbr, 1 tbn
Input #48, png_pipe, from '/home/nmaldaner/projetos/timesmkt3/prj/inema/videos/criaprof/porteiro_2026-04-23/imgs/cena25-ini.png':
  Duration: N/A, bitrate: N/A
  Stream #48:0: Video: png, rgb24(pc, gbr/unknown/unknown), 512x512, 1 fps, 1 tbr, 1 tbn
Input #49, png_pipe, from '/home/nmaldaner/projetos/timesmkt3/prj/inema/videos/criaprof/porteiro_2026-04-23/imgs/cena25-fim.png':
  Duration: N/A, bitrate: N/A
  Stream #49:0: Video: png, rgb24(pc, gbr/unknown/unknown), 512x512, 1 fps, 1 tbr, 1 tbn
Input #50, mp3, from '/tmp/musica_video/mulheres/freesound_719036_Melancholy_Background_Piano__-_bpm_112_l.mp3':
  Duration: 00:01:08.60, start: 0.025057, bitrate: 191 kb/s
  Stream #50:0: Audio: mp3, 44100 Hz, stereo, fltp, 191 kb/s
    Metadata:
      encoder         : LAME3.100
    Side data:
      replaygain: track gain - -5.600000, track peak - unknown, album gain - unknown, album peak - unknown, 
Input #51, mp3, from '/tmp/narr/narr-criaprof-porteiro.mp3':
  Metadata:
    encoder         : Lavf60.16.100
  Duration: 00:00:22.22, start: 0.046042, bitrate: 128 kb/s
  Stream #51:0: Audio: mp3, 24000 Hz, mono, fltp, 128 kb/s
Stream mapping:
  Stream #0:0 (png) -> zoompan:default
  Stream #1:0 (png) -> zoompan:default
  Stream #2:0 (png) -> zoompan:default
  Stream #3:0 (png) -> zoompan:default
  Stream #4:0 (png) -> zoompan:default
  Stream #5:0 (png) -> zoompan:default
  Stream #6:0 (png) -> zoompan:default
  Stream #7:0 (png) -> zoompan:default
  Stream #8:0 (png) -> zoompan:default
  Stream #9:0 (png) -> zoompan:default
  Stream #10:0 (png) -> zoompan:default
  Stream #11:0 (png) -> zoompan:default
  Stream #12:0 (png) -> zoompan:default
  Stream #13:0 (png) -> zoompan:default
  Stream #14:0 (png) -> zoompan:default
  Stream #15:0 (png) -> zoompan:default
  Stream #16:0 (png) -> zoompan:default
  Stream #17:0 (png) -> zoompan:default
  Stream #18:0 (png) -> zoompan:default
  Stream #19:0 (png) -> zoompan:default
  Stream #20:0 (png) -> zoompan:default
  Stream #21:0 (png) -> zoompan:default
  Stream #22:0 (png) -> zoompan:default
  Stream #23:0 (png) -> zoompan:default
  Stream #24:0 (png) -> zoompan:default
  Stream #25:0 (png) -> zoompan:default
  Stream #26:0 (png) -> zoompan:default
  Stream #27:0 (png) -> zoompan:default
  Stream #28:0 (png) -> zoompan:default
  Stream #29:0 (png) -> zoompan:default
  Stream #30:0 (png) -> zoompan:default
  Stream #31:0 (png) -> zoompan:default
  Stream #32:0 (png) -> zoompan:default
  Stream #33:0 (png) -> zoompan:default
  Stream #34:0 (png) -> zoompan:default
  Stream #35:0 (png) -> zoompan:default
  Stream #36:0 (png) -> zoompan:default
  Stream #37:0 (png) -> zoompan:default
  Stream #38:0 (png) -> zoompan:default
  Stream #39:0 (png) -> zoompan:default
  Stream #40:0 (png) -> zoompan:default
  Stream #41:0 (png) -> zoompan:default
  Stream #42:0 (png) -> zoompan:default
  Stream #43:0 (png) -> zoompan:default
  Stream #44:0 (png) -> zoompan:default
  Stream #45:0 (png) -> zoompan:default
  Stream #46:0 (png) -> zoompan:default
  Stream #47:0 (png) -> zoompan:default
  Stream #48:0 (png) -> zoompan:default
  Stream #49:0 (png) -> zoompan:default
  Stream #50:0 (mp3float) -> atrim:default
  Stream #51:0 (mp3float) -> adelay:default
  drawtext:default -> Stream #0:0 (libx264)
  asetpts:default -> Stream #0:1 (aac)
Press [q] to stop, [?] for help
[libx264 @ 0xb0c1978d3d30] using cpu capabilities: ARMv8 NEON
[libx264 @ 0xb0c1978d3d30] profile High, level 3.2, 4:2:0, 8-bit
[libx264 @ 0xb0c1978d3d30] 264 - core 164 r3108 31e19f9 - H.264/MPEG-4 AVC codec - Copyleft 2003-2023 - http://www.videolan.org/x264.html - options: cabac=1 ref=3 deblock=1:0:0 analyse=0x3:0x113 me=hex subme=7 psy=1 psy_rd=1.00:0.00 mixed_ref=1 me_range=16 chroma_me=1 trellis=1 8x8dct=1 cqm=0 deadzone=21,11 fast_pskip=1 chroma_qp_offset=-2 threads=30 lookahead_threads=5 sliced_threads=0 nr=0 decimate=1 interlaced=0 bluray_compat=0 constrained_intra=0 bframes=3 b_pyramid=2 b_adapt=1 b_bias=0 direct=1 weightb=1 open_gop=0 weightp=2 keyint=250 keyint_min=25 scenecut=40 intra_refresh=0 rc_lookahead=40 rc=crf mbtree=1 crf=20.0 qcomp=0.60 qpmin=0 qpmax=69 qpstep=4 ip_ratio=1.40 aq=1:1.00
Output #0, mp4, to '/home/nmaldaner/projetos/timesmkt3/prj/inema/videos/criaprof/porteiro_2026-04-23/video/porteiro-criaprof.mp4':
  Metadata:
    encoder         : Lavf60.16.100
  Stream #0:0: Video: h264 (avc1 / 0x31637661), yuv420p(progressive), 1080x1080, q=2-31, 30 fps, 15360 tbn
    Metadata:
      encoder         : Lavc60.31.102 libx264
    Side data:
      cpb: bitrate max/min/avg: 0/0/0 buffer size: 0 vbv_delay: N/A
  Stream #0:1: Audio: aac (LC) (mp4a / 0x6134706D), 44100 Hz, stereo, fltp, 192 kb/s
    Metadata:
      encoder         : Lavc60.31.102 aac
frame=    0 fps=0.0 q=0.0 size=       0kB time=N/A bitrate=N/A speed=N/A    frame=    0 fps=0.0 q=0.0 size=       0kB time=00:00:01.43 bitrate=   0.3kbits/s speed=1.78x    frame=  146 fps=112 q=26.0 size=    1536kB time=00:00:07.26 bitrate=1731.4kbits/s speed=5.55x    frame=  322 fps=176 q=26.0 size=    3584kB time=00:00:13.09 bitrate=2241.9kbits/s speed=7.16x    frame=  481 fps=206 q=26.0 size=    5120kB time=00:00:18.39 bitrate=2280.7kbits/s speed=7.86x    frame=  667 fps=235 q=26.0 size=    6400kB time=00:00:24.63 bitrate=2128.1kbits/s speed=8.67x    frame=  834 fps=249 q=26.0 size=    7680kB time=00:00:30.18 bitrate=2084.2kbits/s speed=   9x    frame=  996 fps=258 q=26.0 size=    8960kB time=00:00:35.57 bitrate=2063.4kbits/s speed=9.21x    frame= 1158 fps=265 q=26.0 size=    9984kB time=00:00:40.98 bitrate=1995.7kbits/s speed=9.37x    [mp4 @ 0xb0c1978d2d40] Starting second pass: moving the moov atom to the beginning of the file
[out#0/mp4 @ 0xb0c1978d2bd0] video:10484kB audio:1082kB subtitle:0kB other streams:0kB global headers:0kB muxing overhead: 0.425241%
frame= 1350 fps=270 q=-1.0 Lsize=   11615kB time=00:00:44.97 bitrate=2115.5kbits/s speed=8.98x    
[libx264 @ 0xb0c1978d3d30] frame I:35    Avg QP:15.49  size:114060
[libx264 @ 0xb0c1978d3d30] frame P:346   Avg QP:19.66  size: 11776
[libx264 @ 0xb0c1978d3d30] frame B:969   Avg QP:23.39  size:  2754
[libx264 @ 0xb0c1978d3d30] consecutive B-frames:  3.1%  3.6%  0.0% 93.3%
[libx264 @ 0xb0c1978d3d30] mb I  I16..4:  9.2% 78.1% 12.6%
[libx264 @ 0xb0c1978d3d30] mb P  I16..4:  0.6%  4.0%  0.6%  P16..4: 36.3%  9.4%  5.0%  0.0%  0.0%    skip:44.1%
[libx264 @ 0xb0c1978d3d30] mb B  I16..4:  0.0%  0.1%  0.0%  B16..8: 37.7%  0.7%  0.1%  direct: 0.7%  skip:60.7%  L0:55.5% L1:43.8% BI: 0.7%
[libx264 @ 0xb0c1978d3d30] 8x8 transform intra:77.4% inter:93.4%
[libx264 @ 0xb0c1978d3d30] coded y,uvDC,uvAC intra: 85.2% 81.2% 61.2% inter: 4.3% 8.5% 0.6%
[libx264 @ 0xb0c1978d3d30] i16 v,h,dc,p: 35% 14%  2% 49%
[libx264 @ 0xb0c1978d3d30] i8 v,h,dc,ddl,ddr,vr,hd,vl,hu: 24% 19% 16%  5%  7%  7%  7%  7%  8%
[libx264 @ 0xb0c1978d3d30] i4 v,h,dc,ddl,ddr,vr,hd,vl,hu: 28% 21% 11%  5% 10%  8%  8%  5%  5%
[libx264 @ 0xb0c1978d3d30] i8c dc,h,v,p: 40% 23% 27%  9%
[libx264 @ 0xb0c1978d3d30] Weighted P-Frames: Y:0.0% UV:0.0%
[libx264 @ 0xb0c1978d3d30] ref P L0: 76.3%  8.4%  9.0%  6.3%
[libx264 @ 0xb0c1978d3d30] ref B L0: 91.5%  7.2%  1.3%
[libx264 @ 0xb0c1978d3d30] ref B L1: 96.6%  3.4%
[libx264 @ 0xb0c1978d3d30] kb/s:1908.42
[aac @ 0xb0c1978d56a0] Qavg: 583.370
[porteiro] ✅ 11.3 MB em 5.5s

=== 2026-04-23T10:30:36.625Z node render-gertran.js porteiro ===
[gertran porteiro] render -> /home/nmaldaner/projetos/timesmkt3/prj/inema/videos/gertran/porteiro_2026-04-23/video/gertran-porteiro-31s.mp4
ffmpeg version 6.1.1-3ubuntu5 Copyright (c) 2000-2023 the FFmpeg developers
  built with gcc 13 (Ubuntu 13.2.0-23ubuntu3)
  configuration: --prefix=/usr --extra-version=3ubuntu5 --toolchain=hardened --libdir=/usr/lib/aarch64-linux-gnu --incdir=/usr/include/aarch64-linux-gnu --arch=arm64 --enable-gpl --disable-stripping --disable-omx --enable-gnutls --enable-libaom --enable-libass --enable-libbs2b --enable-libcaca --enable-libcdio --enable-libcodec2 --enable-libdav1d --enable-libflite --enable-libfontconfig --enable-libfreetype --enable-libfribidi --enable-libglslang --enable-libgme --enable-libgsm --enable-libharfbuzz --enable-libmp3lame --enable-libmysofa --enable-libopenjpeg --enable-libopenmpt --enable-libopus --enable-librubberband --enable-libshine --enable-libsnappy --enable-libsoxr --enable-libspeex --enable-libtheora --enable-libtwolame --enable-libvidstab --enable-libvorbis --enable-libvpx --enable-libwebp --enable-libx265 --enable-libxml2 --enable-libxvid --enable-libzimg --enable-openal --enable-opencl --enable-opengl --disable-sndio --enable-libdc1394 --enable-libdrm --enable-libiec61883 --enable-chromaprint --enable-frei0r --enable-ladspa --enable-libbluray --enable-libjack --enable-libpulse --enable-librabbitmq --enable-librist --enable-libsrt --enable-libssh --enable-libsvtav1 --enable-libx264 --enable-libzmq --enable-libzvbi --enable-lv2 --enable-sdl2 --enable-libplacebo --enable-librav1e --enable-pocketsphinx --enable-librsvg --enable-libjxl --enable-shared
  libavutil      58. 29.100 / 58. 29.100
  libavcodec     60. 31.102 / 60. 31.102
  libavformat    60. 16.100 / 60. 16.100
  libavdevice    60.  3.100 / 60.  3.100
  libavfilter     9. 12.100 /  9. 12.100
  libswscale      7.  5.100 /  7.  5.100
  libswresample   4. 12.100 /  4. 12.100
  libpostproc    57.  3.100 / 57.  3.100
Input #0, png_pipe, from '/home/nmaldaner/projetos/timesmkt3/prj/inema/videos/gertran-nostalgia/porteiro_2026-04-23/imgs/nost01.png':
  Duration: N/A, bitrate: N/A
  Stream #0:0: Video: png, rgb24(pc, gbr/unknown/unknown), 512x512, 30 fps, 30 tbr, 30 tbn
Input #1, png_pipe, from '/home/nmaldaner/projetos/timesmkt3/prj/inema/videos/gertran-nostalgia/porteiro_2026-04-23/imgs/nost02.png':
  Duration: N/A, bitrate: N/A
  Stream #1:0: Video: png, rgb24(pc, gbr/unknown/unknown), 512x512, 30 fps, 30 tbr, 30 tbn
Input #2, png_pipe, from '/home/nmaldaner/projetos/timesmkt3/prj/inema/videos/gertran-nostalgia/porteiro_2026-04-23/imgs/nost03.png':
  Duration: N/A, bitrate: N/A
  Stream #2:0: Video: png, rgb24(pc, gbr/unknown/unknown), 512x512, 30 fps, 30 tbr, 30 tbn
Input #3, png_pipe, from '/home/nmaldaner/projetos/timesmkt3/prj/inema/videos/gertran-nostalgia/porteiro_2026-04-23/imgs/nost04.png':
  Duration: N/A, bitrate: N/A
  Stream #3:0: Video: png, rgb24(pc, gbr/unknown/unknown), 512x512, 30 fps, 30 tbr, 30 tbn
Input #4, png_pipe, from '/home/nmaldaner/projetos/timesmkt3/prj/inema/videos/gertran-nostalgia/porteiro_2026-04-23/imgs/nost05.png':
  Duration: N/A, bitrate: N/A
  Stream #4:0: Video: png, rgb24(pc, gbr/unknown/unknown), 512x512, 30 fps, 30 tbr, 30 tbn
Input #5, png_pipe, from '/home/nmaldaner/projetos/timesmkt3/prj/inema/videos/gertran-nostalgia/porteiro_2026-04-23/imgs/nost06.png':
  Duration: N/A, bitrate: N/A
  Stream #5:0: Video: png, rgb24(pc, gbr/unknown/unknown), 512x512, 30 fps, 30 tbr, 30 tbn
Input #6, png_pipe, from '/home/nmaldaner/projetos/timesmkt3/prj/inema/videos/gertran-nostalgia/porteiro_2026-04-23/imgs/nost07.png':
  Duration: N/A, bitrate: N/A
  Stream #6:0: Video: png, rgb24(pc, gbr/unknown/unknown), 512x512, 30 fps, 30 tbr, 30 tbn
Input #7, png_pipe, from '/home/nmaldaner/projetos/timesmkt3/prj/inema/videos/gertran-nostalgia/porteiro_2026-04-23/imgs/nost08.png':
  Duration: N/A, bitrate: N/A
  Stream #7:0: Video: png, rgb24(pc, gbr/unknown/unknown), 512x512, 30 fps, 30 tbr, 30 tbn
Input #8, png_pipe, from '/home/nmaldaner/projetos/timesmkt3/prj/inema/videos/gertran-nostalgia/porteiro_2026-04-23/imgs/nost09.png':
  Duration: N/A, bitrate: N/A
  Stream #8:0: Video: png, rgb24(pc, gbr/unknown/unknown), 512x512, 30 fps, 30 tbr, 30 tbn
Input #9, png_pipe, from '/home/nmaldaner/projetos/timesmkt3/prj/inema/videos/gertran-nostalgia/porteiro_2026-04-23/imgs/nost10.png':
  Duration: N/A, bitrate: N/A
  Stream #9:0: Video: png, rgb24(pc, gbr/unknown/unknown), 512x512, 30 fps, 30 tbr, 30 tbn
Input #10, png_pipe, from '/home/nmaldaner/projetos/timesmkt3/prj/inema/videos/gertran-nostalgia/porteiro_2026-04-23/imgs/nost11.png':
  Duration: N/A, bitrate: N/A
  Stream #10:0: Video: png, rgb24(pc, gbr/unknown/unknown), 512x512, 30 fps, 30 tbr, 30 tbn
Input #11, png_pipe, from '/home/nmaldaner/projetos/timesmkt3/prj/inema/videos/gertran-nostalgia/porteiro_2026-04-23/imgs/nost12.png':
  Duration: N/A, bitrate: N/A
  Stream #11:0: Video: png, rgb24(pc, gbr/unknown/unknown), 512x512, 30 fps, 30 tbr, 30 tbn
Input #12, png_pipe, from '/home/nmaldaner/projetos/timesmkt3/prj/inema/videos/gertran-nostalgia/porteiro_2026-04-23/imgs/nost13.png':
  Duration: N/A, bitrate: N/A
  Stream #12:0: Video: png, rgb24(pc, gbr/unknown/unknown), 512x512, 30 fps, 30 tbr, 30 tbn
Input #13, png_pipe, from '/home/nmaldaner/projetos/timesmkt3/prj/inema/videos/gertran-nostalgia/porteiro_2026-04-23/imgs/nost14.png':
  Duration: N/A, bitrate: N/A
  Stream #13:0: Video: png, rgb24(pc, gbr/unknown/unknown), 512x512, 30 fps, 30 tbr, 30 tbn
Input #14, png_pipe, from '/home/nmaldaner/projetos/timesmkt3/prj/inema/videos/gertran-nostalgia/porteiro_2026-04-23/imgs/nost15.png':
  Duration: N/A, bitrate: N/A
  Stream #14:0: Video: png, rgb24(pc, gbr/unknown/unknown), 512x512, 30 fps, 30 tbr, 30 tbn
Input #15, png_pipe, from '/home/nmaldaner/projetos/timesmkt3/prj/inema/videos/gertran-nostalgia/porteiro_2026-04-23/imgs/nost16.png':
  Duration: N/A, bitrate: N/A
  Stream #15:0: Video: png, rgb24(pc, gbr/unknown/unknown), 512x512, 30 fps, 30 tbr, 30 tbn
Input #16, png_pipe, from '/home/nmaldaner/projetos/timesmkt3/prj/inema/videos/gertran-nostalgia/porteiro_2026-04-23/imgs/nost17.png':
  Duration: N/A, bitrate: N/A
  Stream #16:0: Video: png, rgb24(pc, gbr/unknown/unknown), 512x512, 30 fps, 30 tbr, 30 tbn
Input #17, png_pipe, from '/home/nmaldaner/projetos/timesmkt3/prj/inema/videos/gertran-nostalgia/porteiro_2026-04-23/imgs/nost18.png':
  Duration: N/A, bitrate: N/A
  Stream #17:0: Video: png, rgb24(pc, gbr/unknown/unknown), 512x512, 30 fps, 30 tbr, 30 tbn
Input #18, png_pipe, from '/home/nmaldaner/projetos/timesmkt3/prj/inema/videos/gertran-nostalgia/porteiro_2026-04-23/imgs/nost19.png':
  Duration: N/A, bitrate: N/A
  Stream #18:0: Video: png, rgb24(pc, gbr/unknown/unknown), 512x512, 30 fps, 30 tbr, 30 tbn
Input #19, png_pipe, from '/home/nmaldaner/projetos/timesmkt3/prj/inema/videos/gertran-nostalgia/porteiro_2026-04-23/imgs/nost20.png':
  Duration: N/A, bitrate: N/A
  Stream #19:0: Video: png, rgb24(pc, gbr/unknown/unknown), 512x512, 30 fps, 30 tbr, 30 tbn
Input #20, mp3, from '/tmp/musica_video/mulheres/freesound_719036_Melancholy_Background_Piano__-_bpm_112_l.mp3':
  Duration: 00:01:08.60, start: 0.025057, bitrate: 191 kb/s
  Stream #20:0: Audio: mp3, 44100 Hz, stereo, fltp, 191 kb/s
    Metadata:
      encoder         : LAME3.100
    Side data:
      replaygain: track gain - -5.600000, track peak - unknown, album gain - unknown, album peak - unknown, 
Input #21, mp3, from '/tmp/narr/narr-gertran-porteiro.mp3':
  Metadata:
    encoder         : Lavf60.16.100
  Duration: 00:00:17.18, start: 0.046042, bitrate: 128 kb/s
  Stream #21:0: Audio: mp3, 24000 Hz, mono, fltp, 128 kb/s
Stream mapping:
  Stream #0:0 (png) -> scale:default
  Stream #1:0 (png) -> scale:default
  Stream #2:0 (png) -> scale:default
  Stream #3:0 (png) -> scale:default
  Stream #4:0 (png) -> scale:default
  Stream #5:0 (png) -> scale:default
  Stream #6:0 (png) -> scale:default
  Stream #7:0 (png) -> scale:default
  Stream #8:0 (png) -> scale:default
  Stream #9:0 (png) -> scale:default
  Stream #10:0 (png) -> scale:default
  Stream #11:0 (png) -> scale:default
  Stream #12:0 (png) -> scale:default
  Stream #13:0 (png) -> scale:default
  Stream #14:0 (png) -> scale:default
  Stream #15:0 (png) -> scale:default
  Stream #16:0 (png) -> scale:default
  Stream #17:0 (png) -> scale:default
  Stream #18:0 (png) -> scale:default
  Stream #19:0 (png) -> scale:default
  Stream #20:0 (mp3float) -> atrim:default
  Stream #21:0 (mp3float) -> adelay:default
  drawtext:default -> Stream #0:0 (libx264)
  asetpts:default -> Stream #0:1 (aac)
Press [q] to stop, [?] for help
[libx264 @ 0xbafa84888b80] using SAR=1/1
[libx264 @ 0xbafa84888b80] using cpu capabilities: ARMv8 NEON
[libx264 @ 0xbafa84888b80] profile High, level 4.0, 4:2:0, 8-bit
[libx264 @ 0xbafa84888b80] 264 - core 164 r3108 31e19f9 - H.264/MPEG-4 AVC codec - Copyleft 2003-2023 - http://www.videolan.org/x264.html - options: cabac=1 ref=3 deblock=1:0:0 analyse=0x3:0x113 me=hex subme=7 psy=1 psy_rd=1.00:0.00 mixed_ref=1 me_range=16 chroma_me=1 trellis=1 8x8dct=1 cqm=0 deadzone=21,11 fast_pskip=1 chroma_qp_offset=-2 threads=30 lookahead_threads=5 sliced_threads=0 nr=0 decimate=1 interlaced=0 bluray_compat=0 constrained_intra=0 bframes=3 b_pyramid=2 b_adapt=1 b_bias=0 direct=1 weightb=1 open_gop=0 weightp=2 keyint=250 keyint_min=25 scenecut=40 intra_refresh=0 rc_lookahead=40 rc=crf mbtree=1 crf=20.0 qcomp=0.60 qpmin=0 qpmax=69 qpstep=4 ip_ratio=1.40 aq=1:1.00
Output #0, mp4, to '/home/nmaldaner/projetos/timesmkt3/prj/inema/videos/gertran/porteiro_2026-04-23/video/gertran-porteiro-31s.mp4':
  Metadata:
    encoder         : Lavf60.16.100
  Stream #0:0: Video: h264 (avc1 / 0x31637661), yuv420p(progressive), 1080x1920 [SAR 1:1 DAR 9:16], q=2-31, 30 fps, 15360 tbn
    Metadata:
      encoder         : Lavc60.31.102 libx264
    Side data:
      cpb: bitrate max/min/avg: 0/0/0 buffer size: 0 vbv_delay: N/A
  Stream #0:1: Audio: aac (LC) (mp4a / 0x6134706D), 44100 Hz, stereo, fltp, 192 kb/s
    Metadata:
      encoder         : Lavc60.31.102 aac
frame=    0 fps=0.0 q=0.0 size=       0kB time=N/A bitrate=N/A speed=N/A    frame=   39 fps= 31 q=26.0 size=       0kB time=00:00:03.64 bitrate=   0.1kbits/s speed=2.89x    frame=  182 fps=103 q=26.0 size=     768kB time=00:00:08.42 bitrate= 746.5kbits/s speed=4.78x    frame=  329 fps=145 q=26.0 size=    1536kB time=00:00:13.35 bitrate= 942.5kbits/s speed=5.89x    frame=  472 fps=170 q=23.0 size=    2048kB time=00:00:18.11 bitrate= 926.3kbits/s speed=6.54x    frame=  623 fps=190 q=26.0 size=    3072kB time=00:00:23.15 bitrate=1087.1kbits/s speed=7.07x    frame=  763 fps=202 q=26.0 size=    3840kB time=00:00:27.81 bitrate=1130.9kbits/s speed=7.37x    [mp4 @ 0xbafa84887b90] Starting second pass: moving the moov atom to the beginning of the file
[out#0/mp4 @ 0xbafa84887ac0] video:3982kB audio:741kB subtitle:0kB other streams:0kB global headers:0kB muxing overhead: 0.720456%
frame=  930 fps=227 q=-1.0 Lsize=    4756kB time=00:00:30.99 bitrate=1257.0kbits/s speed=7.56x    
[libx264 @ 0xbafa84888b80] frame I:4     Avg QP:10.17  size:144834
[libx264 @ 0xbafa84888b80] frame P:243   Avg QP:13.78  size: 13961
[libx264 @ 0xbafa84888b80] frame B:683   Avg QP:14.85  size:   153
[libx264 @ 0xbafa84888b80] consecutive B-frames:  0.4%  1.3% 11.0% 87.3%
[libx264 @ 0xbafa84888b80] mb I  I16..4: 43.6% 43.2% 13.2%
[libx264 @ 0xbafa84888b80] mb P  I16..4:  4.8%  4.7%  0.7%  P16..4:  1.3%  0.2%  0.2%  0.0%  0.0%    skip:88.2%
[libx264 @ 0xbafa84888b80] mb B  I16..4:  0.0%  0.0%  0.0%  B16..8:  0.4%  0.0%  0.0%  direct: 0.2%  skip:99.3%  L0:36.2% L1:63.0% BI: 0.8%
[libx264 @ 0xbafa84888b80] 8x8 transform intra:45.4% inter:74.9%
[libx264 @ 0xbafa84888b80] coded y,uvDC,uvAC intra: 43.5% 43.7% 40.1% inter: 0.2% 0.4% 0.0%
[libx264 @ 0xbafa84888b80] i16 v,h,dc,p: 91%  5%  1%  3%
[libx264 @ 0xbafa84888b80] i8 v,h,dc,ddl,ddr,vr,hd,vl,hu: 19% 23% 25%  5%  6%  5%  5%  5%  7%
[libx264 @ 0xbafa84888b80] i4 v,h,dc,ddl,ddr,vr,hd,vl,hu: 27% 24% 13%  5%  9%  7%  6%  5%  5%
[libx264 @ 0xbafa84888b80] i8c dc,h,v,p: 71% 13% 12%  5%
[libx264 @ 0xbafa84888b80] Weighted P-Frames: Y:0.4% UV:0.4%
[libx264 @ 0xbafa84888b80] ref P L0: 84.4%  1.9% 12.2%  1.5%  0.0%
[libx264 @ 0xbafa84888b80] ref B L0: 69.5% 29.7%  0.8%
[libx264 @ 0xbafa84888b80] ref B L1: 96.6%  3.4%
[libx264 @ 0xbafa84888b80] kb/s:1052.02
[aac @ 0xbafa8488a4c0] Qavg: 612.029
[gertran porteiro] ✅ 4.6 MB em 4.4s
